/* XPM */
static char *_f5dd190c68d4f87f917a051cb601536rKGqImbfSrjYgiK7[] = {
/* columns rows colors chars-per-pixel */
"16 16 4 1 ",
"  c #071821",
". c #306850",
"X c #86C06C",
"o c #E0F8CF",
/* pixels */
"XXXXXXXXXXXXXXXX",
"XXXXXXXXXXXX  XX",
"X  XXXXXXXX oX X",
" oX XXXXXXX XX X",
" XX XXXXXXXX  XX",
"X  XXXXXXXXXXXXX",
"XXXXX.    X.XXXX",
"XXX   oooo   XXX",
"XX XX      XX XX",
"X XX XXo XXXXX X",
"X  X XXX XXXX  X",
"XX   XXX      XX",
"XXX          XXX",
"XXXXXX    XXXXXX",
"XXXXXXX  XXXXXXX",
"XXXXXXXXXXXXXXXX"
};
