/* XPM */
static char *result[] = {
/* columns rows colors chars-per-pixel */
"16 16 5 1 ",
"  c #071821",
". c #306850",
"X c #86C06C",
"o c #E0F8CF",
"O c #86C06C",
/* pixels */
"OOOOOOOOOOOOOOOO",
"OOOOOOOOOOOOOOOO",
"OOO          OOO",
"OO oooooooooo OO",
"O  oooooooooo  O",
" o .oooooooo. o ",
"   X        X   ",
" o XXXXXXXXXX o ",
" o X   XX X X o ",
"   X X XX  XX   ",
" o X   XX X X o ",
" o XXXXXXXXXX o ",
" o            o ",
"  XX XX  XX XX  ",
" oo oo oo oo oo ",
"O              O"
};
