/* XPM */
static char *result[] = {
/* columns rows colors chars-per-pixel */
"16 16 4 1 ",
"  c #071821",
". c #86C06C",
"X c #E0F8CF",
"o c #86C06C",
/* pixels */
"oooooooooooooooo",
"oooooooooooooooo",
"oooooooooooooooo",
"oooooooooooooooo",
"o              o",
" XX          XX ",
"   XXXXXXXXXX   ",
" X XXXXXXXXXX X ",
" X XXXXXXXXXX X ",
"   .XXXXXXXX.   ",
" X .        . X ",
" X .......... X ",
" X            X ",
"  .. ..  .. ..  ",
" XX XX XX XX XX ",
"o              o"
};
