/* XPM */
static char *result[] = {
/* columns rows colors chars-per-pixel */
"16 16 4 1 ",
"  c #071821",
". c #86C06C",
"X c #86C06C",
"o c #E0F8CF",
/* pixels */
".....      .....",
"...  XXXXXX  ...",
".. XXXXXXXXXX ..",
".. XXXXXXXXXX ..",
".. XXXXXXXXXX ..",
".. XXXX  XXXX ..",
". o XX    XX o .",
". o   XXXX   o .",
"..  oooooooo  ..",
". X          X .",
".   XoXoXoXo   .",
".   oXoXoXoX oo ",
".     XoXoXo oo ",
"... XX         .",
"... XX ..   ....",
"....  .........."
};
