/* XPM */
static char *result[] = {
/* columns rows colors chars-per-pixel */
"16 16 4 1 ",
"  c #071821",
". c #86C06C",
"X c #86C06C",
"o c #E0F8CF",
/* pixels */
".....      .....",
"...  XXXXXX  ...",
".. XXXXXXXXXX ..",
".. XXXXXXXXXX ..",
".. XXooooooXX ..",
"..            ..",
". o oXXooXXo o .",
". o oo oo oo o .",
".. XXooooooXX ..",
". XXXXXooXXXXX .",
".  XXXXXXXXXX  .",
" oo XXXXXXXX oo ",
" oo  XXXXXX  oo ",
".      XX      .",
"... XX    XX ...",
"....  ....  ...."
};
