/* XPM */
static char *cc7bc02594724506f5ffdf205c4ef122KszeqAasLfzvYUM2[] = {
/* columns rows colors chars-per-pixel */
"16 16 4 1 ",
"  c #071821",
". c #86C06C",
"X c #86C06C",
"o c #E0F8CF",
/* pixels */
".....      .....",
"...  XXXXXX  ...",
".. XXXXXXXXXX ..",
".. XXXXXXXXXX ..",
".. XXooooooXX ..",
"..            ..",
". o oXXooXXo o .",
". o oo oo oo o .",
".. XooooooooX ..",
". XXXooooooXXX .",
".  XXXXooXXXX  .",
".   XXXXXXXX oo ",
".     XXXXX  oo ",
"... XX XX      .",
"... XX      ....",
"....  .........."
};
