/* XPM */
static char *_185047834fc4cf7db9c0b0426ea033cBVWCShbfC7MBiLq8[] = {
/* columns rows colors chars-per-pixel */
"16 16 4 1 ",
"  c #071821",
". c #86C06C",
"X c #86C06C",
"o c #E0F8CF",
/* pixels */
".....       ....",
".... XXXXXXX ...",
"... XXXXXXXXX ..",
".  oXXXXXXXXXX .",
" ooooXXXXXXXXX .",
"            X  .",
".. oXXooo oo   .",
".. o oooo oo  ..",
".. oooooXX  X ..",
".. oooXXXX Xo ..",
".. oXXXX  XoX ..",
". XXXXX oo Xo ..",
" XXXXX  oo oX ..",
". XX         ...",
"..  ... XXX ....",
".......    ....."
};
