/* XPM */
static char *_d161a18155a4e02bcb474b5d37ef70cP3CIya679uhvGOXU[] = {
/* columns rows colors chars-per-pixel */
"16 16 4 1 ",
"  c #071821",
". c #86C06C",
"X c #86C06C",
"o c #E0F8CF",
/* pixels */
"....       .....",
"... XXXXXXX ....",
".. XXXXXXXXX ...",
". XXXXXXXXXXo  .",
". XXXXXXXXXoooo ",
".  X            ",
".   oo oooXXo ..",
"..  oo  ooo o ..",
".. X  XX  ooo ..",
".. oXo XXX  o ..",
".. XoX XX  X  ..",
"..  XoX  oo XX .",
"..  oXoX oo XXX ",
". XX        XX .",
".. XX ..      ..",
"...  ...   ....."
};
