/* XPM */
static char *_a6c48f8297143ca88a24e24c4f023c9cSfHCjLNPpyULugb[] = {
/* columns rows colors chars-per-pixel */
"16 16 4 1 ",
"  c #071821",
". c #86C06C",
"X c #86C06C",
"o c #E0F8CF",
/* pixels */
"....       .....",
"... XXXXXXX ....",
".. XXXXXXXXX ...",
". XXXXXXXXXXo  .",
". XXXXXXXXXoooo ",
".  X            ",
".   oo oooXXo ..",
"..  oo oooo o ..",
".. X  XXooooo ..",
".. oX XXXXooo ..",
".. XoX  XXXXo ..",
".. oX oo XXXXX .",
".. Xo oo  XXXXX ",
"...         XX .",
".... XXX ...  ..",
".....    ......."
};
