/* XPM */
static char *result[] = {
/* columns rows colors chars-per-pixel */
"16 16 3 1 ",
"  c #306850",
". c #86C06C",
"X c #E0F8CF",
/* pixels */
"................",
".............X..",
".....X......X X.",
"....X X..... X..",
".... X.... ..  .",
".....  .. . . ..",
"..... ..... ....",
"................",
".X..............",
"X X.......X.....",
" X.......X.X....",
".  ..X....X.....",
". ..X X...... ..",
".... X...... . .",
".....  ....... .",
"..... .........."
};
