/* XPM */
static char *east[] = {
/* columns rows colors chars-per-pixel */
"64 64 2 1 ",
"   c #5F5FFF",
".  c #FF644B",
/* pixels */
".............                                      .............",
".............                                      .............",
".............                                      .............",
".............                                      .............",
".............                                      ..         ..",
".............                                      ..         ..",
".............                                      ..         ..",
".............                                      ..         ..",
".............                                      ..         ..",
".............                 ..                   .............",
".............                 ..                   .............",
".............                 ..                   .............",
".............                 ..                   .............",
"                              ..                                ",
"             .....................................              ",
"             .....................................              ",
"             .....................................              ",
"                              ..                                ",
"                              ..                                ",
"                              ..                                ",
"              ...................................               ",
"              ...................................               ",
"              ...................................               ",
"              ..              ..               ..               ",
"              ..              ..               ..               ",
"              ..              ..               ..               ",
"              ...................................               ",
"              ...................................               ",
"              ...................................               ",
"              ..              ..               ..               ",
"              ..              ..               ..               ",
"              ..              ..               ..               ",
"              ...................................               ",
"              ...................................               ",
"              ...................................               ",
"                         ............                           ",
"                        ..... .. .....                          ",
"                       .....  ..  .....                         ",
"                      .....   ..   .....                        ",
"                     .....    ..    .....                       ",
"                    .....     ..     .....                      ",
"                   .....      ..      ......                    ",
"                 .....        ..        ......                  ",
"                .....         ..         ......                 ",
"              .....           ..          .......               ",
"            ......            ..            .......             ",
"                              ..                                ",
"                              ..                                ",
"                                                                ",
"                                                                ",
"                                                                ",
"                                                                ",
"                                                   .............",
"                                                   .............",
"                                                   .............",
"                                                   .............",
"                                                   .............",
"                                                   .............",
"                                                   .............",
"                                                   .............",
"                                                   .............",
"                                                   .............",
"                                                   .............",
"                                                   ............."
}