/* XPM */
static char *_17a37f3b10345bccaa10633c573abf53J6VrijyM4vjDA5c[] = {
/* columns rows colors chars-per-pixel */
"64 64 2 2 ",
"   c black",
".  c white",
/* pixels */
"........................                                                                                ........................",
"........................                                                                                ........................",
"........................                                                                                ........................",
"........................                                                                                ....                ....",
"........................                                                                                ....                ....",
"........................                                                                                ....                ....",
"........................                                                                                ....                ....",
"........................                                                                                ....                ....",
"........................                                                                                ....                ....",
"........................                                                                                ........................",
"........................                          .....             .....                               ........................",
"........................                          .....             .....                               ........................",
"                                                  .....             .....                                                       ",
"                                                  .....             .....                                                       ",
"                                                  .....             .....                                                       ",
"                                                  .....             .....                                                       ",
"                                                  .....             .....                                                       ",
"                                                  .....             .....                     .....                             ",
"                                                  .....             .....                   .......                             ",
"                                                  .....             .....                 .........                             ",
"                          .............................             .....              ........                                 ",
"                          .............................             .....           .........                                   ",
"                          .............................             .....         ........                                      ",
"                                                  .....             .....     .........                                         ",
"                                                  .....             .................                                           ",
"                                                  .....             ...............                                             ",
"                                                  .....             ..........                                                  ",
"                                                  .....             .......                                                     ",
"                                                  .....             ......                                                      ",
"                                                  .....             .....                                                       ",
"                                                  .....             .....                                                       ",
"                                                  .....             .....                                                       ",
"                                                  .....             .....                                                       ",
"                                                  .....             .....                                                       ",
"                                                  .....             .....                                                       ",
"                                                .......             .....                                                       ",
"                                             ..........             .....                       .....                           ",
"                                        ...............             .....                       .....                           ",
"                                    ............  .....             .....                       .....                           ",
"                                .............     .....             .....                       .....                           ",
"                          ...............         .....             .....                       .....                           ",
"                          ...........             .....             .....                       .....                           ",
"                          .......                 .....             .....                     .....                             ",
"                                                  .....             .......                 .......                             ",
"                                                  .....              .............................                              ",
"                                                  .....               ........................                                  ",
"                                                  .....                 ...................                                     ",
"                                                  .....                                                                         ",
"                                                                                                                                ",
"                                                                                                                                ",
"                                                                                                                                ",
"                                                                                                                                ",
"                                                                                                        ........................",
"                                                                                                        ........................",
"                                                                                                        ........................",
"                                                                                                        ........................",
"                                                                                                        ........................",
"                                                                                                        ........................",
"                                                                                                        ........................",
"                                                                                                        ........................",
"                                                                                                        ........................",
"                                                                                                        ........................",
"                                                                                                        ........................",
"                                                                                                        ........................"
};
