/* XPM */
static char *north[] = {
/* columns rows colors chars-per-pixel */
"64 64 2 1 ",
"   c #FF4E4E",
".  c #4EE4FF",
/* pixels */
".............                                       ............",
".............                                       ............",
".............                                       ............",
".............                                       ..        ..",
".............                                       ..        ..",
".............                                       ..        ..",
".............                                       ..        ..",
".............                                       ..        ..",
".............                                       ..        ..",
".............                                       ............",
".............             ..     ..                 ............",
".............             ..     ..                 ............",
"                          ..     ..                             ",
"                          ..     ..                             ",
"                          ..     ..                             ",
"                          ..     ..                             ",
"                          ..     ..                             ",
"                          ..     ..          ..                 ",
"                          ..     ..         ...                 ",
"                          ..     ..        ....                 ",
"               .............     ..      ....                   ",
"               .............     ..     ....                    ",
"               .............     ..    ....                     ",
"                          ..     ..   ....                      ",
"                          ..     ........                       ",
"                          ..     .......                        ",
"                          ..     ......                         ",
"                          ..     .....                          ",
"                          ..     ....                           ",
"                          ..     ...                            ",
"                          ..     ..                             ",
"                          ..     ..                             ",
"                          ..     ..                             ",
"                          ..     ..                             ",
"                          ..     ..                             ",
"                         ...     ..                             ",
"                        ....     ..           ...               ",
"                      ......     ..           ...               ",
"                     .... ..     ..           ...               ",
"                    ....  ..     ..           ...               ",
"                  ....    ..     ..           ...               ",
"                ....      ..     ..           ...               ",
"              ....        ..     ..          ...                ",
"                          ..     ...        ...                 ",
"                          ..     .............                  ",
"                          ..      ...........                   ",
"                          ..       ........                     ",
"                          ..                                    ",
"                                                                ",
"                                                                ",
"                                                                ",
"                                                                ",
"                                                    ............",
"                                                    ............",
"                                                    ............",
"                                                    ............",
"                                                    ............",
"                                                    ............",
"                                                    ............",
"                                                    ............",
"                                                    ............",
"                                                    ............",
"                                                    ............",
"                                                    ............"
};
