/* XPM */
static char *_a34403997864981e4f030cd73850f42A0oPibPahOp7II9C[] = {
/* columns rows colors chars-per-pixel */
"64 64 2 2 ",
"   c black",
".  c white",
/* pixels */
".........................                                                                              .........................",
".........................                                                                              .........................",
".........................                                                                              .........................",
".........................                                                                              .......             .....",
".........................                                                                              .......             .....",
".........................                                                                              .......             .....",
".........................                                                                              .......             .....",
".........................                                                                              .......             .....",
".........................                                                                              .......             .....",
".........................                                   .....                                      .........................",
".........................                                   .....                                      .........................",
".........................                                   .....                                      .........................",
"                                                            .....                                                               ",
"                                                            .....                                                               ",
"                          ...........................................................................                           ",
"                          ...........................................................................                           ",
"                                                            .....                                                               ",
"                                                            .....                                                               ",
"                                                            .....                                                               ",
"                                                            .....                                                               ",
"                                                            .....                                                               ",
"                                ...............................................................                                 ",
"                                .....                                                     .....                                 ",
"                                .....                                                     .....                                 ",
"                                .....           .....                   .....             .....                                 ",
"                                .....            .....                 .....              .....                                 ",
"                                .....             .....               .....               .....                                 ",
"                                .....              .....             .....                .....                                 ",
"                                .....               .....           .....                 .....                                 ",
"                                .....                .....        ......                  .....                                 ",
"                                .....   .............................................     .....                                 ",
"                                .....                       .....                         .....                                 ",
"                                .....                       .....                         .....                                 ",
"                                .....                       .....                         .....                                 ",
"                                .....                       .....                         .....                                 ",
"                                .....                       .....                         .....                                 ",
"                                .....                       .....                         .....                                 ",
"                                .....   .............................................     .....                                 ",
"                                .....                       .....                         .....                                 ",
"                                .....                       .....                         .....                                 ",
"                                .....                       .....                         .....                                 ",
"                                .....                       .....                         .....                                 ",
"                                .....                       .....                         .....                                 ",
"                                .....                       .....                         .....                                 ",
"                                .....                       .....                         .....                                 ",
"                                .....                       .....                       .......                                 ",
"                                .....                       .....             .................                                 ",
"                                .....                       .....                 .............                                 ",
"                                                                                                                                ",
"                                                                                                                                ",
"                                                                                                                                ",
"                                                                                                                                ",
"                                                                                                       .........................",
"                                                                                                       .........................",
"                                                                                                       .........................",
"                                                                                                       .........................",
"                                                                                                       .........................",
"                                                                                                       .........................",
"                                                                                                       .........................",
"                                                                                                       .........................",
"                                                                                                       .........................",
"                                                                                                       .........................",
"                                                                                                       .........................",
"                                                                                                       ........................."
};
