/* XPM */
static char *south[] = {
/* columns rows colors chars-per-pixel */
"64 64 2 1 ",
"   c #C979FF",
".  c #E8FA4B",
/* pixels */
".............                                       ............",
".............                                       ............",
".............                                       ............",
".............                                       ..        ..",
".............                                       ..        ..",
".............                                       ..        ..",
".............                                       ..        ..",
".............                                       ..        ..",
".............                                       ..        ..",
".............                   ..                  ............",
".............                   ..                  ............",
".............                   ..                  ............",
"                                ..                              ",
"                                ..                              ",
"             .......................................            ",
"             .......................................            ",
"                                ..                              ",
"                                ..                              ",
"                                ..                              ",
"                                ..                              ",
"                                ..                              ",
"              ......................................            ",
"              ..                                  ..            ",
"              ..                                  ..            ",
"              ..      ...               ...       ..            ",
"              ..       ...             ...        ..            ",
"              ..        ...           ...         ..            ",
"              ..         ...         ...          ..            ",
"              ..          ...       ...           ..            ",
"              ..           ...     ...            ..            ",
"              .. ................................ ..            ",
"              ..                ..                ..            ",
"              ..                ..                ..            ",
"              ..                ..                ..            ",
"              ..                ..                ..            ",
"              ..                ..                ..            ",
"              ..                ..                ..            ",
"              .. ................................ ..            ",
"              ..                ..                ..            ",
"              ..                ..                ..            ",
"              ..                ..                ..            ",
"              ..                ..                ..            ",
"              ..                ..                ..            ",
"              ..                ..                ..            ",
"              ..                ..                ..            ",
"              ..                ..                ..            ",
"              ..                ..        ..........            ",
"              ..                ..            ......            ",
"                                                                ",
"                                                                ",
"                                                                ",
"                                                                ",
"                                                    ............",
"                                                    ............",
"                                                    ............",
"                                                    ............",
"                                                    ............",
"                                                    ............",
"                                                    ............",
"                                                    ............",
"                                                    ............",
"                                                    ............",
"                                                    ............",
"                                                    ............"
};
