/* XPM */
static char *west[] = {
/* columns rows colors chars-per-pixel */
"64 64 2 2 ",
"   c #7CC08E",
".  c #FFFC03",
/* pixels */
".......................                                                                                 ........................",
".......................                                                                                 ........................",
".......................                                                                                 ........................",
".......................                                                                                 .....              .....",
".......................                                                                                 .....              .....",
".......................                                                                                 .....              .....",
".......................                                                                                 .....              .....",
".......................                                                                                 .....              .....",
".......................                                                                                 .....              .....",
".......................                                                                                 ........................",
".......................                                                                                 ........................",
".......................                                                                                 ........................",
"                          ...........................................................................                           ",
"                          ...........................................................................                           ",
"                          ...........................................................................                           ",
"                                                    .....           .....                                                       ",
"                                                    .....           .....                                                       ",
"                                                    .....           .....                                                       ",
"                                                    .....           .....                                                       ",
"                                                    .....           .....                                                       ",
"                                                    .....           .....                                                       ",
"                              .................................................................                                 ",
"                              .................................................................                                 ",
"                              .................................................................                                 ",
"                              .....                 .....           .....                 .....                                 ",
"                              .....                 .....           .....                 .....                                 ",
"                              .....                 .....           .....                 .....                                 ",
"                              .....                .....            .....                 .....                                 ",
"                              .....                .....            .....                 .....                                 ",
"                              .....              ......             .....         .....   .....                                 ",
"                              .....             .......             .....         .....   .....                                 ",
"                              .....            .......              .....         .....   .....                                 ",
"                              .....          ........               ...................   .....                                 ",
"                              .....        ........                 ...................   .....                                 ",
"                              .....     ..........                   .................    .....                                 ",
"                              .....     .......                                           .....                                 ",
"                              .....     .....                                             .....                                 ",
"                              .....                                                       .....                                 ",
"                              .....                                                       .....                                 ",
"                              .....                                                       .....                                 ",
"                              .....                                                       .....                                 ",
"                              .....                                                       .....                                 ",
"                              .................................................................                                 ",
"                              .................................................................                                 ",
"                              .................................................................                                 ",
"                              .....                                                       .....                                 ",
"                              .....                                                       .....                                 ",
"                              .....                                                       .....                                 ",
"                                                                                                                                ",
"                                                                                                                                ",
"                                                                                                                                ",
"                                                                                                                                ",
"                                                                                                        ........................",
"                                                                                                        ........................",
"                                                                                                        ........................",
"                                                                                                        ........................",
"                                                                                                        ........................",
"                                                                                                        ........................",
"                                                                                                        ........................",
"                                                                                                        ........................",
"                                                                                                        ........................",
"                                                                                                        ........................",
"                                                                                                        ........................",
"                                                                                                        ........................"
};
