/* XPM */
static char *_f5dd190c68d4f87f917a051cb601536rKGqImbfSrjYgiK7[] = {
/* columns rows colors chars-per-pixel */
"32 32 4 1 ",
"  c #071821",
". c #306850",
"X c #86C06C",
"o c #E0F8CF",
/* pixels */
"XXXXXXXXXXXXXXXXXXXXXXXXXXXXXXXX",
"XXXXXXXXXXXXXXXXXXXXXXXXXXXXXXXX",
"XXXXXXXXXXXXXXXXXXXXXXXX    XXXX",
"XXXXXXXXXXXXXXXXXXXXXXXX    XXXX",
"XX    XXXXXXXXXXXXXXXX  ooXX  XX",
"XX    XXXXXXXXXXXXXXXX  ooXX  XX",
"  ooXX  XXXXXXXXXXXXXX  XXXX  XX",
"  ooXX  XXXXXXXXXXXXXX  XXXX  XX",
"  XXXX  XXXXXXXXXXXXXXXX    XXXX",
"  XXXX  XXXXXXXXXXXXXXXX    XXXX",
"XX    XXXXXXXXXXXXXXXXXXXXXXXXXX",
"XX    XXXXXXXXXXXXXXXXXXXXXXXXXX",
"XXXXXXXXXX..        XX..XXXXXXXX",
"XXXXXXXXXX..        XX..XXXXXXXX",
"XXXXXX      oooooooo      XXXXXX",
"XXXXXX      oooooooo      XXXXXX",
"XXXX  XXXX            XXXX  XXXX",
"XXXX  XXXX            XXXX  XXXX",
"XX  XXXX  XXXXoo  XXXXXXXXXX  XX",
"XX  XXXX  XXXXoo  XXXXXXXXXX  XX",
"XX    XX  XXXXXX  XXXXXXXX    XX",
"XX    XX  XXXXXX  XXXXXXXX    XX",
"XXXX      XXXXXX            XXXX",
"XXXX      XXXXXX            XXXX",
"XXXXXX                    XXXXXX",
"XXXXXX                    XXXXXX",
"XXXXXXXXXXXX        XXXXXXXXXXXX",
"XXXXXXXXXXXX        XXXXXXXXXXXX",
"XXXXXXXXXXXXXX    XXXXXXXXXXXXXX",
"XXXXXXXXXXXXXX    XXXXXXXXXXXXXX",
"XXXXXXXXXXXXXXXXXXXXXXXXXXXXXXXX",
"XXXXXXXXXXXXXXXXXXXXXXXXXXXXXXXX"
};
