/* XPM */
static char *result[] = {
/* columns rows colors chars-per-pixel */
"32 32 4 1 ",
"  c #071821",
". c #86C06C",
"X c #E0F8CF",
"o c #86C06C",
/* pixels */
"oooooooooooooooooooooooooooooooo",
"oooooooooooooooooooooooooooooooo",
"oooooooooooooooooooooooooooooooo",
"oooooooooooooooooooooooooooooooo",
"oooooooooooooooooooooooooooooooo",
"oooooooooooooooooooooooooooooooo",
"oooooooooooooooooooooooooooooooo",
"oooooooooooooooooooooooooooooooo",
"oo                            oo",
"oo                            oo",
"  XXXX                    XXXX  ",
"  XXXX                    XXXX  ",
"      XXXXXXXXXXXXXXXXXXXX      ",
"      XXXXXXXXXXXXXXXXXXXX      ",
"  XX  XXXXXXXXXXXXXXXXXXXX  XX  ",
"  XX  XXXXXXXXXXXXXXXXXXXX  XX  ",
"  XX  XXXXXXXXXXXXXXXXXXXX  XX  ",
"  XX  XXXXXXXXXXXXXXXXXXXX  XX  ",
"      ..XXXXXXXXXXXXXXXX..      ",
"      ..XXXXXXXXXXXXXXXX..      ",
"  XX  ..                ..  XX  ",
"  XX  ..                ..  XX  ",
"  XX  ....................  XX  ",
"  XX  ....................  XX  ",
"  XX                        XX  ",
"  XX                        XX  ",
"    ....  ....    ....  ....    ",
"    ....  ....    ....  ....    ",
"  XXXX  XXXX  XXXX  XXXX  XXXX  ",
"  XXXX  XXXX  XXXX  XXXX  XXXX  ",
"oo                            oo",
"oo                            oo"
};
