/* XPM */
static char *result[] = {
/* columns rows colors chars-per-pixel */
"32 32 5 1 ",
"  c #071821",
". c #306850",
"X c #86C06C",
"o c #E0F8CF",
"O c #86C06C",
/* pixels */
"OOOOOOOOOOOOOOOOOOOOOOOOOOOOOOOO",
"OOOOOOOOOOOOOOOOOOOOOOOOOOOOOOOO",
"OOOOOOOOOOOOOOOOOOOOOOOOOOOOOOOO",
"OOOOOOOOOOOOOOOOOOOOOOOOOOOOOOOO",
"OOOOOO                    OOOOOO",
"OOOOOO                    OOOOOO",
"OOOO  oooooooooooooooooooo  OOOO",
"OOOO  oooooooooooooooooooo  OOOO",
"OO    oooooooooooooooooooo    OO",
"OO    oooooooooooooooooooo    OO",
"  oo  ..oooooooooooooooo..  oo  ",
"  oo  ..oooooooooooooooo..  oo  ",
"      XX                XX      ",
"      XX                XX      ",
"  oo  XXXXXXXXXXXXXXXXXXXX  oo  ",
"  oo  XXXXXXXXXXXXXXXXXXXX  oo  ",
"  oo  XX      XXXX  XX  XX  oo  ",
"  oo  XX      XXXX  XX  XX  oo  ",
"      XX  XX  XXXX    XXXX      ",
"      XX  XX  XXXX    XXXX      ",
"  oo  XX      XXXX  XX  XX  oo  ",
"  oo  XX      XXXX  XX  XX  oo  ",
"  oo  XXXXXXXXXXXXXXXXXXXX  oo  ",
"  oo  XXXXXXXXXXXXXXXXXXXX  oo  ",
"  oo                        oo  ",
"  oo                        oo  ",
"    XXXX  XXXX    XXXX  XXXX    ",
"    XXXX  XXXX    XXXX  XXXX    ",
"  oooo  oooo  oooo  oooo  oooo  ",
"  oooo  oooo  oooo  oooo  oooo  ",
"OO                            OO",
"OO                            OO"
};
