/* XPM */
static char *result[] = {
/* columns rows colors chars-per-pixel */
"32 32 4 1 ",
"  c #071821",
". c #306850",
"X c #86C06C",
"o c #E0F8CF",
/* pixels */
"XXXXXXXXXXXXXXXXXXXXXXXXXXXXXXXX",
"XXXXXXXXXXXXXXXXXXXXXXXXXXXXXXXX",
"XXXXXXXXXXXX    XXXXXXXXXXXXXXXX",
"XXXXXXXXXXXX    XXXXXXXXXXXXXXXX",
"XXXXXXXX    XXXX  XXXXXXXXXXXXXX",
"XXXXXXXX    XXXX  XXXXXXXXXXXXXX",
"XXXXXX  ..XXooXXoo  XXXXXXXXXXXX",
"XXXXXX  ..XXooXXoo  XXXXXXXXXXXX",
"XXXX..    XXXXXXXXXX  XXXXXXXXXX",
"XXXX..    XXXXXXXXXX  XXXXXXXXXX",
"XXXXXX..  ......XXXX  XXXXXXXXXX",
"XXXXXX..  ......XXXX  XXXXXXXXXX",
"XXXXXXXX..          XXXXXXXXXXXX",
"XXXXXXXX..          XXXXXXXXXXXX",
"XXXXXXXXXX........XXXXXXXXXXXXXX",
"XXXXXXXXXX........XXXXXXXXXXXXXX",
"XXXXXXXXXXXX      XXXXXXXXXXXXXX",
"XXXXXXXXXXXX      XXXXXXXXXXXXXX",
"XXXXXXXX    XXXXXX  XXXXXXXXXXXX",
"XXXXXXXX    XXXXXX  XXXXXXXXXXXX",
"XXXXXX  XXXXXXXXXXoo    XXXXXXXX",
"XXXXXX  XXXXXXXXXXoo    XXXXXXXX",
"XXXX  XXXXXXooooXXXXoooo  XXXXXX",
"XXXX  XXXXXXooooXXXXoooo  XXXXXX",
"XX..    ..XXXXXXXXXXXXXXXX  XXXX",
"XX..    ..XXXXXXXXXXXXXXXX  XXXX",
"XXXX      ....  ..XXXXXXXX  XXXX",
"XXXX      ....  ..XXXXXXXX  XXXX",
"XXXX..                    XXXXXX",
"XXXX..                    XXXXXX",
"XXXXXX..................XXXXXXXX",
"XXXXXX..................XXXXXXXX"
};