/* XPM */
static char *result[] = {
/* columns rows colors chars-per-pixel */
"32 32 47 1 ",
"  c #091219",
". c #091319",
"X c #0D171C",
"o c #0D191C",
"O c #0E181D",
"+ c #0D1A1C",
"@ c #0E1A1C",
"# c #0E1B1C",
"$ c #0F191E",
"% c #0F1B1F",
"& c #111F1F",
"* c #11201F",
"= c #12201F",
"- c #13221F",
"; c #101B20",
": c #121E21",
"> c #142122",
", c #142223",
"< c #162324",
"1 c #172427",
"2 c #192527",
"3 c #67A151",
"4 c #67A252",
"5 c #68A252",
"6 c #6EAB55",
"7 c #6EAC55",
"8 c #6FAD55",
"9 c #6FAD56",
"0 c #6FAD57",
"q c #73AF5A",
"w c #74B458",
"e c #75B659",
"r c #76B75A",
"t c #77B75A",
"y c #79B95E",
"u c #7AB95E",
"i c #7ABA5E",
"p c #BEDBAF",
"a c #C1DEB1",
"s c #C6E6B3",
"d c #CBE9B9",
"f c #CCEABA",
"g c #CDEBBA",
"h c #CEF0B8",
"j c #D4F5BE",
"k c #D9F7C4",
"l c #D9F8C4",
/* pixels */
"eeeeeeee9#############-eeeeeeeee",
"eeeeeeee8.............#eeeeeeeee",
"eeeeee9#=66666666666664#-eeeeeee",
"eeeeee8.oeeeeeeeeeeeee6.#eeeeeee",
"eeee9#=67eeeeeeeeeeeeee64#-eeeee",
"eeee8.oeeeeeeeeeeeeeeeee6.#eeeee",
"ee9#=67eeeeeeeeeeeeeeeeeydp#####",
"ee8.oeeeeeeeeeeeeeeeeeeeild.....",
"ee..oeeeeeeeeeeeeeeeeeujjlkdddp.",
"ee..oeeeeeeeeeeeeeeeeeillllllld.",
"..g..o*e7oooooooooooooo;;;;;;;%.",
"..g...oe6.......................",
".......o>dddp.%ddddds666qdp.....",
"........;llld.;llllljeeeild.....",
"..lg....;llld..;1lllljso,ld.:l..",
"..ll....;llld...;llllld.;ld.:l..",
"..ll..o65;;;>6665;;;1lkdfld.:l..",
"..ll..oe6...oeee6...;llllld.:l..",
"......;jh6qdpo*ee6665;;;1ld.....",
"......;ljeild.oeeeee6...;ld.....",
"..ll..oiqoo;%.oeeeeee6665;%..:..",
"..ll..oe6.....oeeeeeeeee6.......",
"..ll...o>dddp..o*eeeeeeee666663.",
"..ll....;llld...oeeeeeeeeeeeee6.",
"..ll....;llld.o65o*e7ooo*eee7oo.",
"..ll....;llld.oe6.oe6...oeee6...",
"....+....;;;%..oo..o&6665o*e6...",
"....................oeee6.oe6...",
"..lga.........gga.o67e7oo..o<g..",
"..llg.........llg.owrt0X  O$2l..",
"ee.........  ......@@@+.......ee",
"ee............................ee"
};
