/* XPM */
static char *result[] = {
/* columns rows colors chars-per-pixel */
"32 32 4 1 ",
"  c #071821",
". c #86C06C",
"X c #86C06C",
"o c #E0F8CF",
/* pixels */
"..........            ..........",
"..........            ..........",
"......    XXXXXXXXXXXX    ......",
"......    XXXXXXXXXXXX    ......",
"....  XXXXXXXXXXXXXXXXXXXX  ....",
"....  XXXXXXXXXXXXXXXXXXXX  ....",
"....  XXXXXXXXXXXXXXXXXXXX  ....",
"....  XXXXXXXXXXXXXXXXXXXX  ....",
"....  XXXXooooooooooooXXXX  ....",
"....  XXXXooooooooooooXXXX  ....",
"....                        ....",
"....                        ....",
"..  oo  ooXXXXooooXXXXoo  oo  ..",
"..  oo  ooXXXXooooXXXXoo  oo  ..",
"..  oo  oooo  oooo  oooo  oo  ..",
"..  oo  oooo  oooo  oooo  oo  ..",
"....  XXXXooooooooooooXXXX  ....",
"....  XXXXooooooooooooXXXX  ....",
"..  XXXXXXXXXXooooXXXXXXXXXX  ..",
"..  XXXXXXXXXXooooXXXXXXXXXX  ..",
"..    XXXXXXXXXXXXXXXXXXXX    ..",
"..    XXXXXXXXXXXXXXXXXXXX    ..",
"  oooo  XXXXXXXXXXXXXXXX  oooo  ",
"  oooo  XXXXXXXXXXXXXXXX  oooo  ",
"  oooo    XXXXXXXXXXXX    oooo  ",
"  oooo    XXXXXXXXXXXX    oooo  ",
"..            XXXX            ..",
"..            XXXX            ..",
"......  XXXX        XXXX  ......",
"......  XXXX        XXXX  ......",
"........    ........    ........",
"........    ........    ........"
};
