/* XPM */
static char *_185047834fc4cf7db9c0b0426ea033cBVWCShbfC7MBiLq8[] = {
/* columns rows colors chars-per-pixel */
"32 32 4 1 ",
"  c #071821",
". c #86C06C",
"X c #86C06C",
"o c #E0F8CF",
/* pixels */
"..........              ........",
"..........              ........",
"........  XXXXXXXXXXXXXX  ......",
"........  XXXXXXXXXXXXXX  ......",
"......  XXXXXXXXXXXXXXXXXX  ....",
"......  XXXXXXXXXXXXXXXXXX  ....",
"..    ooXXXXXXXXXXXXXXXXXXXX  ..",
"..    ooXXXXXXXXXXXXXXXXXXXX  ..",
"  ooooooooXXXXXXXXXXXXXXXXXX  ..",
"  ooooooooXXXXXXXXXXXXXXXXXX  ..",
"                        XX    ..",
"                        XX    ..",
"....  ooXXXXoooooo  oooo      ..",
"....  ooXXXXoooooo  oooo      ..",
"....  oo  oooooooo  oooo    ....",
"....  oo  oooooooo  oooo    ....",
"....  ooooooooooXXXX    XX  ....",
"....  ooooooooooXXXX    XX  ....",
"....  ooooooXXXXXXXX  XXoo  ....",
"....  ooooooXXXXXXXX  XXoo  ....",
"....  ooXXXXXXXX    XXooXX  ....",
"....  ooXXXXXXXX    XXooXX  ....",
"..  XXXXXXXXXX  oooo  XXoo  ....",
"..  XXXXXXXXXX  oooo  XXoo  ....",
"  XXXXXXXXXX    oooo  ooXX  ....",
"  XXXXXXXXXX    oooo  ooXX  ....",
"..  XXXX                  ......",
"..  XXXX                  ......",
"....    ......  XXXXXX  ........",
"....    ......  XXXXXX  ........",
"..............        ..........",
"..............        .........."
};
