/* XPM */
static char *result[] = {
/* columns rows colors chars-per-pixel */
"32 32 3 1 ",
"  c #091319",
". c #75B659",
"X c #D9F8C4",
/* pixels */
"..........            ..........",
"..........            ..........",
"......    ............    ......",
"......    ............    ......",
"....  ....................  ....",
"....  ....................  ....",
"....  ....................  ....",
"....  ....................  ....",
"..    ....XXXXXXXXXXXX....    ..",
"..    ....XXXXXXXXXXXX....    ..",
"  XX                        XX  ",
"  XX                        XX  ",
"    XX  XX....XXXX....XX  XX    ",
"    XX  XX....XXXX....XX  XX    ",
"    XX  XXXX  XXXX  XXXX  XX    ",
"    XX  XXXX  XXXX  XXXX  XX    ",
"  XX  ..XXXXXXXXXXXXXXXX..  XX  ",
"  XX  ..XXXXXXXXXXXXXXXX..  XX  ",
"    ......XXXXXXXXXXXX......    ",
"    ......XXXXXXXXXXXX......    ",
"      ........XXXX........      ",
"      ........XXXX........      ",
"        ................  XXXX  ",
"        ................  XXXX  ",
"            ..........    XXXX  ",
"            ..........    XXXX  ",
"    ..  ....  ....              ",
"    ..  ....  ....              ",
"  XXXX  ....              XXXX  ",
"  XXXX  ....              XXXX  ",
"..                            ..",
"..                            .."
};
