/* XPM */
static char *result[] = {
/* columns rows colors chars-per-pixel */
"32 32 3 1 ",
"  c #091319",
". c #75B659",
"X c #D9F8C4",
/* pixels */
"................................",
"................................",
"..........              ........",
"..........              ........",
"........  ..............  ......",
"........  ..............  ......",
"......  ..................  ....",
"......  ..................  ....",
"      XX....................  ..",
"      XX....................  ..",
"  XXXXXXXX..................    ",
"  XXXXXXXX..................    ",
"                        ..      ",
"                        ..      ",
"  XX  XX....XXXXXX  XXXX        ",
"  XX  XX....XXXXXX  XXXX        ",
"  XX  XX  XXXXXX    XXXX    XX  ",
"  XX  XX  XXXXXX    XXXX    XX  ",
"      XXXXXX    ....    ..      ",
"      XXXXXX    ....    ..      ",
"  XX  XX    ......  XX..XX  XX  ",
"  XX  XX    ......  XX..XX  XX  ",
"        ..........      ..  XX  ",
"        ..........      ..  XX  ",
"  ..............    XXXX    XX  ",
"  ..............    XXXX    XX  ",
"    ....    ..  ..  XXXX        ",
"    ....    ..  ..  XXXX        ",
"    ..  ....                    ",
"    ..  ....                    ",
"..        ....                ..",
"..        ....                .."
};
