/* XPM */
static char *_a6c48f8297143ca88a24e24c4f023c9cSfHCjLNPpyULugb[] = {
/* columns rows colors chars-per-pixel */
"32 32 4 1 ",
"  c #071821",
". c #86C06C",
"X c #86C06C",
"o c #E0F8CF",
/* pixels */
"........              ..........",
"........              ..........",
"......  XXXXXXXXXXXXXX  ........",
"......  XXXXXXXXXXXXXX  ........",
"....  XXXXXXXXXXXXXXXXXX  ......",
"....  XXXXXXXXXXXXXXXXXX  ......",
"..  XXXXXXXXXXXXXXXXXXXXoo    ..",
"..  XXXXXXXXXXXXXXXXXXXXoo    ..",
"..  XXXXXXXXXXXXXXXXXXoooooooo  ",
"..  XXXXXXXXXXXXXXXXXXoooooooo  ",
"..    XX                        ",
"..    XX                        ",
"..      oooo  ooooooXXXXoo  ....",
"..      oooo  ooooooXXXXoo  ....",
"....    oooo  oooooooo  oo  ....",
"....    oooo  oooooooo  oo  ....",
"....  XX    XXXXoooooooooo  ....",
"....  XX    XXXXoooooooooo  ....",
"....  ooXX  XXXXXXXXoooooo  ....",
"....  ooXX  XXXXXXXXoooooo  ....",
"....  XXooXX    XXXXXXXXoo  ....",
"....  XXooXX    XXXXXXXXoo  ....",
"....  ooXX  oooo  XXXXXXXXXX  ..",
"....  ooXX  oooo  XXXXXXXXXX  ..",
"....  XXoo  oooo    XXXXXXXXXX  ",
"....  XXoo  oooo    XXXXXXXXXX  ",
"......                  XXXX  ..",
"......                  XXXX  ..",
"........  XXXXXX  ......    ....",
"........  XXXXXX  ......    ....",
"..........        ..............",
"..........        .............."
};
