/* XPM */
static char *result[] = {
/* columns rows colors chars-per-pixel */
"32 32 3 1 ",
"  c #306850",
". c #86C06C",
"X c #E0F8CF",
/* pixels */
"................................",
"................................",
"..........................XX....",
"..........................XX....",
"..........XX............XX  XX..",
"..........XX............XX  XX..",
"........XX  XX..........  XX....",
"........XX  XX..........  XX....",
"........  XX........  ....    ..",
"........  XX........  ....    ..",
"..........    ....  ..  ..  ....",
"..........    ....  ..  ..  ....",
"..........  ..........  ........",
"..........  ..........  ........",
"................................",
"................................",
"..XX............................",
"..XX............................",
"XX  XX..............XX..........",
"XX  XX..............XX..........",
"  XX..............XX..XX........",
"  XX..............XX..XX........",
"..    ....XX........XX..........",
"..    ....XX........XX..........",
"..  ....XX  XX............  ....",
"..  ....XX  XX............  ....",
"........  XX............  ..  ..",
"........  XX............  ..  ..",
"..........    ..............  ..",
"..........    ..............  ..",
"..........  ....................",
"..........  ...................."
};
